<svg width="193" height="62" viewBox="0 0 193 62" fill="none" xmlns="http://www.w3.org/2000/svg">
<path d="M0.504339 46V16.1818H6.80867V29.3292H7.20178L17.9323 16.1818H25.4887L14.4234 29.533L25.6198 46H18.0778L9.90988 33.7408L6.80867 37.5263V46H0.504339ZM30.0568 46V23.6364H36.2592V46H30.0568ZM33.1726 20.7536C32.2505 20.7536 31.4594 20.4478 30.7993 19.8363C30.149 19.2151 29.8239 18.4725 29.8239 17.6087C29.8239 16.7545 30.149 16.0217 30.7993 15.4102C31.4594 14.7889 32.2505 14.4783 33.1726 14.4783C34.0947 14.4783 34.8809 14.7889 35.5312 15.4102C36.1913 16.0217 36.5213 16.7545 36.5213 17.6087C36.5213 18.4725 36.1913 19.2151 35.5312 19.8363C34.8809 20.4478 34.0947 20.7536 33.1726 20.7536ZM51.3321 46.4368C49.0414 46.4368 47.071 45.9515 45.4209 44.9808C43.7805 44.0005 42.5187 42.6416 41.6354 40.9041C40.7618 39.1667 40.325 37.1671 40.325 34.9055C40.325 32.6148 40.7666 30.6056 41.6499 28.8778C42.5429 27.1404 43.8096 25.7863 45.45 24.8157C47.0904 23.8353 49.0414 23.3452 51.303 23.3452C53.254 23.3452 54.9623 23.6995 56.428 24.408C57.8937 25.1166 59.0536 26.1115 59.9077 27.3928C60.7619 28.674 61.2327 30.1785 61.32 31.9062H55.4671C55.302 30.79 54.8653 29.8922 54.1567 29.2127C53.4578 28.5236 52.5406 28.179 51.4049 28.179C50.444 28.179 49.6044 28.4411 48.8861 28.9652C48.1775 29.4796 47.6242 30.2319 47.2263 31.2219C46.8283 32.212 46.6293 33.4107 46.6293 34.8182C46.6293 36.245 46.8235 37.4583 47.2117 38.4581C47.6097 39.4579 48.1678 40.2198 48.8861 40.744C49.6044 41.2681 50.444 41.5302 51.4049 41.5302C52.1135 41.5302 52.7492 41.3846 53.3122 41.0934C53.8849 40.8022 54.3557 40.38 54.7245 39.8267C55.1031 39.2637 55.3506 38.5891 55.4671 37.8029H61.32C61.223 39.5112 60.7571 41.0157 59.9223 42.3164C59.0973 43.6074 57.9568 44.6168 56.5008 45.3448C55.0448 46.0728 53.3219 46.4368 51.3321 46.4368ZM70.9112 39.5646L70.9258 32.1246H71.8285L78.9918 23.6364H86.1115L76.4876 34.8764H75.017L70.9112 39.5646ZM65.2912 46V16.1818H71.4936V46H65.2912ZM79.2685 46L72.6875 36.2596L76.8224 31.8771L86.5337 46H79.2685ZM109.043 25.8203C108.839 25.1117 108.553 24.4857 108.184 23.9421C107.815 23.3888 107.364 22.9229 106.83 22.5444C106.306 22.1561 105.704 21.8601 105.024 21.6562C104.355 21.4524 103.612 21.3505 102.797 21.3505C101.273 21.3505 99.9335 21.729 98.7784 22.4861C97.633 23.2433 96.74 24.3449 96.0994 25.7912C95.4588 27.2277 95.1385 28.9846 95.1385 31.0618C95.1385 33.139 95.4539 34.9055 96.0849 36.3615C96.7158 37.8175 97.6088 38.9289 98.7638 39.6957C99.9189 40.4528 101.283 40.8313 102.855 40.8313C104.282 40.8313 105.5 40.579 106.51 40.0742C107.529 39.5598 108.305 38.8366 108.839 37.9048C109.383 36.973 109.654 35.8713 109.654 34.5998L110.936 34.7891H103.248V30.0426H115.726V33.799C115.726 36.4197 115.173 38.6716 114.066 40.5547C112.96 42.428 111.436 43.8743 109.494 44.8935C107.553 45.9029 105.33 46.4077 102.826 46.4077C100.031 46.4077 97.5748 45.7913 95.4588 44.5586C93.3428 43.3162 91.6927 41.5545 90.5085 39.2734C89.334 36.9827 88.7468 34.2649 88.7468 31.12C88.7468 28.7031 89.0962 26.5483 89.7951 24.6555C90.5037 22.7531 91.4937 21.1418 92.7653 19.8217C94.0368 18.5017 95.517 17.497 97.206 16.8079C98.8949 16.1187 100.725 15.7741 102.695 15.7741C104.384 15.7741 105.956 16.0217 107.412 16.5167C108.868 17.002 110.159 17.6912 111.285 18.5842C112.421 19.4772 113.348 20.54 114.066 21.7727C114.784 22.9957 115.245 24.3449 115.449 25.8203H109.043ZM130.449 46.4368C128.188 46.4368 126.232 45.9563 124.582 44.9954C122.941 44.0247 121.675 42.6755 120.782 40.9478C119.889 39.2103 119.442 37.1963 119.442 34.9055C119.442 32.5954 119.889 30.5765 120.782 28.8487C121.675 27.1113 122.941 25.7621 124.582 24.8011C126.232 23.8305 128.188 23.3452 130.449 23.3452C132.711 23.3452 134.662 23.8305 136.302 24.8011C137.952 25.7621 139.224 27.1113 140.117 28.8487C141.01 30.5765 141.456 32.5954 141.456 34.9055C141.456 37.1963 141.01 39.2103 140.117 40.9478C139.224 42.6755 137.952 44.0247 136.302 44.9954C134.662 45.9563 132.711 46.4368 130.449 46.4368ZM130.478 41.6321C131.507 41.6321 132.366 41.3409 133.055 40.7585C133.745 40.1664 134.264 39.3608 134.613 38.3416C134.972 37.3224 135.152 36.1625 135.152 34.8619C135.152 33.5612 134.972 32.4013 134.613 31.3821C134.264 30.3629 133.745 29.5573 133.055 28.9652C132.366 28.3731 131.507 28.0771 130.478 28.0771C129.44 28.0771 128.566 28.3731 127.858 28.9652C127.159 29.5573 126.63 30.3629 126.271 31.3821C125.921 32.4013 125.747 33.5612 125.747 34.8619C125.747 36.1625 125.921 37.3224 126.271 38.3416C126.63 39.3608 127.159 40.1664 127.858 40.7585C128.566 41.3409 129.44 41.6321 130.478 41.6321ZM155.565 54.8523C153.555 54.8523 151.833 54.5756 150.396 54.0224C148.969 53.4788 147.834 52.7363 146.989 51.7947C146.145 50.8532 145.596 49.7952 145.344 48.6207L151.08 47.8491C151.255 48.2956 151.532 48.7129 151.91 49.1012C152.289 49.4895 152.789 49.8001 153.41 50.033C154.041 50.2757 154.808 50.397 155.71 50.397C157.06 50.397 158.171 50.067 159.044 49.407C159.928 48.7566 160.369 47.6647 160.369 46.131V42.0398H160.107C159.836 42.661 159.428 43.2482 158.884 43.8015C158.341 44.3548 157.642 44.8061 156.788 45.1555C155.934 45.505 154.914 45.6797 153.73 45.6797C152.051 45.6797 150.522 45.2914 149.144 44.5149C147.775 43.7287 146.683 42.5299 145.868 40.9187C145.062 39.2977 144.66 37.2496 144.66 34.7745C144.66 32.2411 145.072 30.1251 145.897 28.4265C146.722 26.7279 147.819 25.4563 149.188 24.6119C150.566 23.7674 152.075 23.3452 153.716 23.3452C154.968 23.3452 156.016 23.5587 156.861 23.9858C157.705 24.4032 158.384 24.9273 158.899 25.5582C159.423 26.1795 159.826 26.791 160.107 27.3928H160.34V23.6364H166.499V46.2184C166.499 48.1209 166.033 49.7127 165.101 50.994C164.169 52.2752 162.879 53.2362 161.228 53.8768C159.588 54.5271 157.7 54.8523 155.565 54.8523ZM155.696 41.0206C156.696 41.0206 157.54 40.7731 158.229 40.2781C158.928 39.7733 159.462 39.055 159.831 38.1232C160.209 37.1817 160.399 36.0558 160.399 34.7454C160.399 33.435 160.214 32.2994 159.845 31.3384C159.476 30.3678 158.943 29.6155 158.244 29.0817C157.545 28.5478 156.696 28.2809 155.696 28.2809C154.677 28.2809 153.818 28.5575 153.119 29.1108C152.42 29.6544 151.891 30.4115 151.532 31.3821C151.173 32.3527 150.993 33.4738 150.993 34.7454C150.993 36.0363 151.173 37.1526 151.532 38.0941C151.901 39.0259 152.43 39.7491 153.119 40.2635C153.818 40.7682 154.677 41.0206 155.696 41.0206ZM181.539 46.4368C179.278 46.4368 177.322 45.9563 175.672 44.9954C174.031 44.0247 172.765 42.6755 171.872 40.9478C170.979 39.2103 170.532 37.1963 170.532 34.9055C170.532 32.5954 170.979 30.5765 171.872 28.8487C172.765 27.1113 174.031 25.7621 175.672 24.8011C177.322 23.8305 179.278 23.3452 181.539 23.3452C183.801 23.3452 185.752 23.8305 187.392 24.8011C189.042 25.7621 190.314 27.1113 191.207 28.8487C192.1 30.5765 192.546 32.5954 192.546 34.9055C192.546 37.1963 192.1 39.2103 191.207 40.9478C190.314 42.6755 189.042 44.0247 187.392 44.9954C185.752 45.9563 183.801 46.4368 181.539 46.4368ZM181.568 41.6321C182.597 41.6321 183.456 41.3409 184.145 40.7585C184.834 40.1664 185.354 39.3608 185.703 38.3416C186.062 37.3224 186.242 36.1625 186.242 34.8619C186.242 33.5612 186.062 32.4013 185.703 31.3821C185.354 30.3629 184.834 29.5573 184.145 28.9652C183.456 28.3731 182.597 28.0771 181.568 28.0771C180.53 28.0771 179.656 28.3731 178.948 28.9652C178.249 29.5573 177.72 30.3629 177.361 31.3821C177.011 32.4013 176.836 33.5612 176.836 34.8619C176.836 36.1625 177.011 37.3224 177.361 38.3416C177.72 39.3608 178.249 40.1664 178.948 40.7585C179.656 41.3409 180.53 41.6321 181.568 41.6321Z" fill="#62C613"/>
</svg>
