<svg width="53" height="56" viewBox="0 0 53 56" fill="none" xmlns="http://www.w3.org/2000/svg">
<path fill-rule="evenodd" clip-rule="evenodd" d="M47.7 0H5.3C2.37289 0 0 2.50721 0 5.6V50.4C0 53.4928 2.37289 56 5.3 56H47.7C50.6271 56 53 53.4928 53 50.4V5.6C53 2.50721 50.6271 0 47.7 0ZM40.6781 17.4702C42.2177 17.2822 43.6845 16.8653 45.05 16.2457C44.0298 17.804 42.7385 19.1728 41.2502 20.2705C41.2645 20.6043 41.2716 20.9396 41.2716 21.2763C41.2716 31.5517 33.6179 43.4 19.6175 43.4C15.3183 43.4 11.3188 42.1128 7.94999 39.9073C8.54642 39.9802 9.15284 40.0166 9.76639 40.0166C13.3336 40.0166 16.6154 38.7732 19.2194 36.6872C15.8891 36.6245 13.0782 34.3753 12.1093 31.2864C12.573 31.3753 13.051 31.4249 13.5405 31.4249C14.2353 31.4249 14.9088 31.3301 15.5466 31.1523C12.0636 30.4395 9.44107 27.2966 9.44107 23.5285V23.4308C10.467 24.0124 11.6413 24.3623 12.8884 24.4031C10.8465 23.0095 9.50385 20.6291 9.50385 17.9323C9.50385 16.5052 9.87911 15.1699 10.5326 14.0213C14.2881 18.7268 19.8957 21.8229 26.221 22.1466C26.0926 21.5795 26.0241 20.9848 26.0241 20.3754C26.0241 16.0825 29.4315 12.6 33.635 12.6C35.8239 12.6 37.8015 13.5446 39.1898 15.0562C40.9249 14.7064 42.5544 14.0592 44.0241 13.1685C43.4562 14.9848 42.2505 16.5081 40.6781 17.4702Z" fill="black"/>
</svg>
