<svg width="51" height="56" viewBox="0 0 51 56" fill="none" xmlns="http://www.w3.org/2000/svg">
<rect x="1" y="1" width="49" height="54" rx="9" fill="#F7F7F7" stroke="black" stroke-width="2"/>
<g filter="url(#filter0_dd_54_409)">
<path fill-rule="evenodd" clip-rule="evenodd" d="M27.4616 22.0104C27.1154 22.4205 26.5688 22.4205 26.2226 22.0104L25.6031 21.2765C24.878 20.4176 23.8984 19.8931 22.8158 19.8931C20.5921 19.8931 18.7895 22.1182 18.7895 24.8631C18.7895 27.4946 19.9435 29.6675 21.6095 31.4528C23.2769 33.2397 25.2704 34.4248 26.4615 35.0296C26.7106 35.156 26.9736 35.156 27.2227 35.0296C28.4138 34.4248 30.4073 33.2397 32.0747 31.4528C33.7407 29.6675 34.8947 27.4946 34.8947 24.8631C34.8947 22.1182 33.0921 19.8931 30.8684 19.8931C29.7858 19.8931 28.8063 20.4176 28.0811 21.2765L27.4616 22.0104ZM26.8421 19.6828C25.7971 18.445 24.3784 17.6842 22.8158 17.6842C19.6038 17.6842 17 20.8983 17 24.8631C17 31.8965 23.2366 35.7806 25.7808 37.0724C26.4659 37.4203 27.2183 37.4203 27.9035 37.0724C30.4476 35.7806 36.6842 31.8965 36.6842 24.8631C36.6842 20.8983 34.0804 17.6842 30.8684 17.6842C29.3058 17.6842 27.8871 18.445 26.8421 19.6828Z" fill="black"/>
<path fill-rule="evenodd" clip-rule="evenodd" d="M27.4616 22.0104C27.1154 22.4205 26.5688 22.4205 26.2226 22.0104L25.6031 21.2765C24.878 20.4176 23.8984 19.8931 22.8158 19.8931C20.5921 19.8931 18.7895 22.1182 18.7895 24.8631C18.7895 27.4946 19.9435 29.6675 21.6095 31.4528C23.2769 33.2397 25.2704 34.4248 26.4615 35.0296C26.7106 35.156 26.9736 35.156 27.2227 35.0296C28.4138 34.4248 30.4073 33.2397 32.0747 31.4528C33.7407 29.6675 34.8947 27.4946 34.8947 24.8631C34.8947 22.1182 33.0921 19.8931 30.8684 19.8931C29.7858 19.8931 28.8063 20.4176 28.0811 21.2765L27.4616 22.0104ZM26.8421 19.6828C25.7971 18.445 24.3784 17.6842 22.8158 17.6842C19.6038 17.6842 17 20.8983 17 24.8631C17 31.8965 23.2366 35.7806 25.7808 37.0724C26.4659 37.4203 27.2183 37.4203 27.9035 37.0724C30.4476 35.7806 36.6842 31.8965 36.6842 24.8631C36.6842 20.8983 34.0804 17.6842 30.8684 17.6842C29.3058 17.6842 27.8871 18.445 26.8421 19.6828Z" stroke="black"/>
</g>
<defs>
<filter id="filter0_dd_54_409" x="12.5" y="17.1842" width="28.6843" height="28.6492" filterUnits="userSpaceOnUse" color-interpolation-filters="sRGB">
<feFlood flood-opacity="0" result="BackgroundImageFix"/>
<feColorMatrix in="SourceAlpha" type="matrix" values="0 0 0 0 0 0 0 0 0 0 0 0 0 0 0 0 0 0 127 0" result="hardAlpha"/>
<feOffset dy="4"/>
<feGaussianBlur stdDeviation="2"/>
<feComposite in2="hardAlpha" operator="out"/>
<feColorMatrix type="matrix" values="0 0 0 0 0 0 0 0 0 0 0 0 0 0 0 0 0 0 0.25 0"/>
<feBlend mode="normal" in2="BackgroundImageFix" result="effect1_dropShadow_54_409"/>
<feColorMatrix in="SourceAlpha" type="matrix" values="0 0 0 0 0 0 0 0 0 0 0 0 0 0 0 0 0 0 127 0" result="hardAlpha"/>
<feOffset dy="4"/>
<feGaussianBlur stdDeviation="2"/>
<feComposite in2="hardAlpha" operator="out"/>
<feColorMatrix type="matrix" values="0 0 0 0 0 0 0 0 0 0 0 0 0 0 0 0 0 0 0.25 0"/>
<feBlend mode="normal" in2="effect1_dropShadow_54_409" result="effect2_dropShadow_54_409"/>
<feBlend mode="normal" in="SourceGraphic" in2="effect2_dropShadow_54_409" result="shape"/>
</filter>
</defs>
</svg>
