<svg width="316" height="57" viewBox="0 0 316 57" fill="none" xmlns="http://www.w3.org/2000/svg">
<rect x="1" y="1" width="49" height="54" rx="9" fill="#F7F7F7" stroke="black" stroke-width="2"/>
<g filter="url(#filter0_dd_54_408)">
<path fill-rule="evenodd" clip-rule="evenodd" d="M27.4616 22.0104C27.1154 22.4205 26.5688 22.4205 26.2226 22.0104L25.6031 21.2765C24.878 20.4176 23.8984 19.8931 22.8158 19.8931C20.5921 19.8931 18.7895 22.1182 18.7895 24.8631C18.7895 27.4946 19.9435 29.6675 21.6095 31.4528C23.2769 33.2397 25.2704 34.4248 26.4615 35.0296C26.7106 35.156 26.9736 35.156 27.2227 35.0296C28.4138 34.4248 30.4073 33.2397 32.0747 31.4528C33.7407 29.6675 34.8947 27.4946 34.8947 24.8631C34.8947 22.1182 33.0921 19.8931 30.8684 19.8931C29.7858 19.8931 28.8063 20.4176 28.0811 21.2765L27.4616 22.0104ZM26.8421 19.6828C25.7971 18.445 24.3784 17.6842 22.8158 17.6842C19.6038 17.6842 17 20.8983 17 24.8631C17 31.8965 23.2366 35.7806 25.7808 37.0724C26.4659 37.4203 27.2183 37.4203 27.9035 37.0724C30.4476 35.7806 36.6842 31.8965 36.6842 24.8631C36.6842 20.8983 34.0804 17.6842 30.8684 17.6842C29.3058 17.6842 27.8871 18.445 26.8421 19.6828Z" fill="black"/>
<path fill-rule="evenodd" clip-rule="evenodd" d="M27.4616 22.0104C27.1154 22.4205 26.5688 22.4205 26.2226 22.0104L25.6031 21.2765C24.878 20.4176 23.8984 19.8931 22.8158 19.8931C20.5921 19.8931 18.7895 22.1182 18.7895 24.8631C18.7895 27.4946 19.9435 29.6675 21.6095 31.4528C23.2769 33.2397 25.2704 34.4248 26.4615 35.0296C26.7106 35.156 26.9736 35.156 27.2227 35.0296C28.4138 34.4248 30.4073 33.2397 32.0747 31.4528C33.7407 29.6675 34.8947 27.4946 34.8947 24.8631C34.8947 22.1182 33.0921 19.8931 30.8684 19.8931C29.7858 19.8931 28.8063 20.4176 28.0811 21.2765L27.4616 22.0104ZM26.8421 19.6828C25.7971 18.445 24.3784 17.6842 22.8158 17.6842C19.6038 17.6842 17 20.8983 17 24.8631C17 31.8965 23.2366 35.7806 25.7808 37.0724C26.4659 37.4203 27.2183 37.4203 27.9035 37.0724C30.4476 35.7806 36.6842 31.8965 36.6842 24.8631C36.6842 20.8983 34.0804 17.6842 30.8684 17.6842C29.3058 17.6842 27.8871 18.445 26.8421 19.6828Z" stroke="black"/>
</g>
<rect x="66" y="1" width="51" height="55" rx="9" fill="#F7F7F7" stroke="black" stroke-width="2"/>
<g filter="url(#filter1_b_54_408)">
<path d="M91.1369 15.0417L93.908 24.8883H102.875L95.6206 30.9737L98.3916 40.8202L91.1369 34.7348L83.8822 40.8202L86.6532 30.9737L79.3985 24.8883H88.3658L91.1369 15.0417Z" fill="white"/>
<path d="M91.1369 18.7331L92.9453 25.1592L93.1505 25.8883H93.908H100.127L94.9779 30.2076L94.4829 30.6228L94.658 31.2446L96.5509 37.971L91.7796 33.9686L91.1369 33.4295L90.4942 33.9686L85.7229 37.971L87.6158 31.2446L87.7909 30.6228L87.2959 30.2076L82.1467 25.8883H88.3658H89.1233L89.3285 25.1592L91.1369 18.7331Z" stroke="black" stroke-width="2"/>
</g>
<path fill-rule="evenodd" clip-rule="evenodd" d="M181.4 0H136.6C133.507 0 131 2.50721 131 5.6V50.4C131 53.4928 133.507 56 136.6 56H181.4C184.493 56 187 53.4928 187 50.4V5.6C187 2.50721 184.493 0 181.4 0ZM158.813 35.025V55.9998H167.027V35.025H174.043L175.169 27.1595H167.027V23.7983C167.027 20.7832 167.863 19.2939 170.693 19.2939H175.24V11.7719L175.192 11.7654C174.374 11.6552 172.689 11.4284 169.559 11.4284C162.892 11.4284 158.813 14.9391 158.813 22.9357V27.1595H150.6V35.025H158.813Z" fill="black"/>
<path fill-rule="evenodd" clip-rule="evenodd" d="M249.7 0H207.3C204.373 0 202 2.50721 202 5.6V50.4C202 53.4928 204.373 56 207.3 56H249.7C252.627 56 255 53.4928 255 50.4V5.6C255 2.50721 252.627 0 249.7 0ZM242.678 17.4702C244.218 17.2822 245.684 16.8653 247.05 16.2457C246.03 17.804 244.738 19.1728 243.25 20.2705C243.265 20.6043 243.272 20.9396 243.272 21.2763C243.272 31.5517 235.618 43.4 221.617 43.4C217.318 43.4 213.319 42.1128 209.95 39.9073C210.546 39.9802 211.153 40.0166 211.766 40.0166C215.334 40.0166 218.615 38.7732 221.219 36.6872C217.889 36.6245 215.078 34.3753 214.109 31.2864C214.573 31.3753 215.051 31.4249 215.54 31.4249C216.235 31.4249 216.909 31.3301 217.547 31.1523C214.064 30.4395 211.441 27.2966 211.441 23.5285V23.4308C212.467 24.0124 213.641 24.3623 214.888 24.4031C212.847 23.0095 211.504 20.6291 211.504 17.9323C211.504 16.5052 211.879 15.1699 212.533 14.0213C216.288 18.7268 221.896 21.8229 228.221 22.1466C228.093 21.5795 228.024 20.9848 228.024 20.3754C228.024 16.0825 231.431 12.6 235.635 12.6C237.824 12.6 239.801 13.5446 241.19 15.0562C242.925 14.7064 244.554 14.0592 246.024 13.1685C245.456 14.9848 244.25 16.5081 242.678 17.4702Z" fill="black"/>
<path fill-rule="evenodd" clip-rule="evenodd" d="M311.2 0H272.8C270.149 0 268 2.50721 268 5.6V50.4C268 53.4928 270.149 56 272.8 56H311.2C313.851 56 316 53.4928 316 50.4V5.6C316 2.50721 313.851 0 311.2 0ZM277.6 12.7792C277.6 15.1968 279.281 17.161 281.359 17.161C283.431 17.161 285.116 15.1968 285.116 12.7792C285.116 10.364 283.431 8.39985 281.359 8.39985C279.283 8.39985 277.6 10.3615 277.6 12.7792ZM278.201 44.8H284.649V20.6183H278.201V44.8ZM308.8 44.7999H302.357V33.0402C302.357 30.2353 302.313 26.6279 299.006 26.6279C295.651 26.6279 295.135 29.6825 295.135 32.8364V44.7999H288.692V20.6182H294.878V23.9224H294.965C295.826 22.0219 297.929 20.0169 301.065 20.0169C307.594 20.0169 308.8 25.0255 308.8 31.5371V44.7999Z" fill="black"/>
<defs>
<filter id="filter0_dd_54_408" x="12.5" y="17.1842" width="28.6843" height="28.6492" filterUnits="userSpaceOnUse" color-interpolation-filters="sRGB">
<feFlood flood-opacity="0" result="BackgroundImageFix"/>
<feColorMatrix in="SourceAlpha" type="matrix" values="0 0 0 0 0 0 0 0 0 0 0 0 0 0 0 0 0 0 127 0" result="hardAlpha"/>
<feOffset dy="4"/>
<feGaussianBlur stdDeviation="2"/>
<feComposite in2="hardAlpha" operator="out"/>
<feColorMatrix type="matrix" values="0 0 0 0 0 0 0 0 0 0 0 0 0 0 0 0 0 0 0.25 0"/>
<feBlend mode="normal" in2="BackgroundImageFix" result="effect1_dropShadow_54_408"/>
<feColorMatrix in="SourceAlpha" type="matrix" values="0 0 0 0 0 0 0 0 0 0 0 0 0 0 0 0 0 0 127 0" result="hardAlpha"/>
<feOffset dy="4"/>
<feGaussianBlur stdDeviation="2"/>
<feComposite in2="hardAlpha" operator="out"/>
<feColorMatrix type="matrix" values="0 0 0 0 0 0 0 0 0 0 0 0 0 0 0 0 0 0 0.25 0"/>
<feBlend mode="normal" in2="effect1_dropShadow_54_408" result="effect2_dropShadow_54_408"/>
<feBlend mode="normal" in="SourceGraphic" in2="effect2_dropShadow_54_408" result="shape"/>
</filter>
<filter id="filter1_b_54_408" x="75.3984" y="11.0417" width="31.4768" height="33.7784" filterUnits="userSpaceOnUse" color-interpolation-filters="sRGB">
<feFlood flood-opacity="0" result="BackgroundImageFix"/>
<feGaussianBlur in="BackgroundImageFix" stdDeviation="2"/>
<feComposite in2="SourceAlpha" operator="in" result="effect1_backgroundBlur_54_408"/>
<feBlend mode="normal" in="SourceGraphic" in2="effect1_backgroundBlur_54_408" result="shape"/>
</filter>
</defs>
</svg>
