<svg width="56" height="56" viewBox="0 0 56 56" fill="none" xmlns="http://www.w3.org/2000/svg">
<path fill-rule="evenodd" clip-rule="evenodd" d="M50.4 0H5.6C2.50721 0 0 2.50721 0 5.6V50.4C0 53.4928 2.50721 56 5.6 56H50.4C53.4928 56 56 53.4928 56 50.4V5.6C56 2.50721 53.4928 0 50.4 0ZM27.8133 35.025V55.9998H36.0267V35.025H43.0433L44.169 27.1595H36.0267V23.7983C36.0267 20.7832 36.8626 19.2939 39.6926 19.2939H44.24V11.7719L44.192 11.7654C43.3737 11.6552 41.6894 11.4284 38.559 11.4284C31.8917 11.4284 27.8133 14.9391 27.8133 22.9357V27.1595H19.6V35.025H27.8133Z" fill="black"/>
</svg>
