<svg width="48" height="56" viewBox="0 0 48 56" fill="none" xmlns="http://www.w3.org/2000/svg">
<path fill-rule="evenodd" clip-rule="evenodd" d="M43.2 0H4.8C2.14903 0 0 2.50721 0 5.6V50.4C0 53.4928 2.14903 56 4.8 56H43.2C45.851 56 48 53.4928 48 50.4V5.6C48 2.50721 45.851 0 43.2 0ZM9.60003 12.7792C9.60003 15.1968 11.2808 17.161 13.3593 17.161C15.4313 17.161 17.1164 15.1968 17.1164 12.7792C17.1164 10.364 15.4313 8.39985 13.3593 8.39985C11.283 8.39985 9.60003 10.3615 9.60003 12.7792ZM10.201 44.8H16.6487V20.6183H10.201V44.8ZM40.8 44.7999H34.3568V33.0402C34.3568 30.2353 34.3131 26.6279 31.0062 26.6279C27.6512 26.6279 27.1354 29.6825 27.1354 32.8364V44.7999H20.6922V20.6182H26.8775V23.9224H26.9649C27.8261 22.0219 29.9287 20.0169 33.0651 20.0169C39.5936 20.0169 40.8 25.0255 40.8 31.5371V44.7999Z" fill="black"/>
</svg>
