<svg width="80" height="70" viewBox="0 0 80 70" fill="none" xmlns="http://www.w3.org/2000/svg">
<rect x="1" y="1" width="77.754" height="67.8018" rx="15" fill="white"/>
<path fill-rule="evenodd" clip-rule="evenodd" d="M8.7754 1H70.9786C75.2728 1 78.754 4.03559 78.754 7.78018V62.0216C78.754 65.7662 75.2728 68.8018 70.9786 68.8018H8.7754C4.48116 68.8018 1 65.7662 1 62.0216V7.78018C1 4.03559 4.48116 1 8.7754 1Z" fill="white" stroke="white"/>
<path d="M39.1178 68.8016V69.3016H39.6178H51.0217H51.5217V68.8016V43.9065H60.764H61.1887L61.2575 43.4874L62.8204 33.9643L62.9158 33.3833H62.327H51.5217V29.8137C51.5217 28.0176 51.8126 26.8098 52.472 26.0443C53.1156 25.2971 54.2109 24.8601 56.1117 24.8601H62.4256H62.9256V24.3601V15.2528V14.808L62.4838 14.7562L62.4193 14.7486C61.2721 14.6139 58.913 14.3369 54.5378 14.3369C49.842 14.3369 45.9735 15.414 43.2753 17.7977C40.5657 20.1914 39.1178 23.8294 39.1178 28.7693V33.3833H28.2139H27.7139V33.8833V43.4065V43.9065H28.2139H39.1178V68.8016Z" fill="black" stroke="black"/>
</svg>
