<svg width="81" height="66" viewBox="0 0 81 66" fill="none" xmlns="http://www.w3.org/2000/svg">
<path fill-rule="evenodd" clip-rule="evenodd" d="M72.0571 0H8.00635C3.58456 0 0 2.92104 0 6.52432V58.7189C0 62.3222 3.58456 65.2432 8.00635 65.2432H72.0571C76.4789 65.2432 80.0635 62.3222 80.0635 58.7189V6.52432C80.0635 2.92104 76.4789 0 72.0571 0ZM64.7832 17.9788C64.2282 18.5661 64.7738 19.8577 65.5587 19.6658C66.2732 19.4912 66.7485 20.3369 66.2014 20.8285C65.2979 21.6404 64.3042 22.3898 63.2339 23.065C62.6781 23.4157 62.343 24.0312 62.346 24.6883C62.3462 24.7216 62.3463 24.7549 62.3463 24.7882C62.3463 36.7597 50.7843 50.5636 29.6348 50.5636C24.1731 50.5636 19.0316 49.503 14.5076 47.6374C13.9771 47.4186 14.1796 46.6218 14.7534 46.6218C16.9129 46.6218 19.0031 46.3891 20.986 45.9539C23.4672 45.4093 22.9179 41.5698 20.9534 39.9594C20.351 39.4655 19.8189 38.918 19.37 38.327C18.79 37.5631 19.4956 36.6119 20.4546 36.6119C21.0847 36.6119 21.1311 35.7242 20.5463 35.4895C16.8161 33.9923 14.262 30.9371 14.262 27.4121C14.262 27.3584 14.317 27.3224 14.3664 27.3434C14.7587 27.5108 15.1651 27.661 15.5837 27.7925C16.5155 28.0854 17.0109 26.7544 16.3694 26.0178C15.0995 24.5596 14.3568 22.7934 14.3568 20.8923C14.3568 18.2991 17.5661 17.9557 19.6982 19.4317C24.5736 22.8067 30.7313 25.0563 37.5224 25.6672C38.5459 25.7593 39.3129 24.7663 39.3129 23.7386C39.3129 18.7371 44.4601 14.6798 50.8102 14.6798C53.6567 14.6798 56.2667 15.4954 58.2759 16.846C58.8868 17.2566 59.6201 17.4829 60.3422 17.3403C61.7612 17.0603 63.1281 16.6777 64.4289 16.2029C65.1825 15.928 65.8715 16.646 65.381 17.2807C65.1953 17.521 64.9957 17.7539 64.7832 17.9788Z" fill="white"/>
</svg>
