<svg width="80" height="70" viewBox="0 0 80 70" fill="none" xmlns="http://www.w3.org/2000/svg">
<path fill-rule="evenodd" clip-rule="evenodd" d="M23.7881 0H55.5056C68.6434 0 79.2936 9.36451 79.2936 20.9162V48.8045C79.2936 60.3562 68.6434 69.7207 55.5056 69.7207H23.7881C10.6503 69.7207 0 60.3562 0 48.8045V20.9162C0 9.36451 10.6503 0 23.7881 0ZM63.4349 10.4579C65.4173 10.4579 67.3996 12.2009 67.3996 13.9439C67.3996 15.6869 65.4173 17.4299 63.4349 17.4299C61.4526 17.4299 59.4702 15.6869 59.4702 13.9439C59.4702 12.2009 61.4526 10.4579 63.4349 10.4579ZM59.4702 34.8597C59.4702 25.247 50.5794 17.4296 39.6468 17.4296C28.7142 17.4296 19.8234 25.247 19.8234 34.8597C19.8234 44.4725 28.7142 52.2899 39.6468 52.2899C50.5794 52.2899 59.4702 44.4725 59.4702 34.8597ZM39.6468 24.4028C33.0779 24.4028 27.7528 29.0851 27.7528 34.8609C27.7528 40.6368 33.0779 45.319 39.6468 45.319C46.2157 45.319 51.5409 40.6368 51.5409 34.8609C51.5409 29.0851 46.2157 24.4028 39.6468 24.4028Z" fill="white"/>
</svg>
