<svg width="261" height="98" viewBox="0 0 261 98" fill="none" xmlns="http://www.w3.org/2000/svg">
<rect width="261" height="98" fill="black"/>
<path d="M18.5341 66V31.0909H25.9148V46.483H26.375L38.9375 31.0909H47.7841L34.8295 46.7216L47.9375 66H39.108L29.5455 51.6477L25.9148 56.0795V66H18.5341ZM53.1321 66V39.8182H60.3935V66H53.1321ZM56.7798 36.4432C55.7003 36.4432 54.7741 36.0852 54.0014 35.3693C53.2401 34.642 52.8594 33.7727 52.8594 32.7614C52.8594 31.7614 53.2401 30.9034 54.0014 30.1875C54.7741 29.4602 55.7003 29.0966 56.7798 29.0966C57.8594 29.0966 58.7798 29.4602 59.5412 30.1875C60.3139 30.9034 60.7003 31.7614 60.7003 32.7614C60.7003 33.7727 60.3139 34.642 59.5412 35.3693C58.7798 36.0852 57.8594 36.4432 56.7798 36.4432ZM78.0398 66.5114C75.358 66.5114 73.0511 65.9432 71.1193 64.8068C69.1989 63.6591 67.7216 62.0682 66.6875 60.0341C65.6648 58 65.1534 55.6591 65.1534 53.0114C65.1534 50.3295 65.6705 47.9773 66.7045 45.9545C67.75 43.9205 69.233 42.3352 71.1534 41.1989C73.0739 40.0511 75.358 39.4773 78.0057 39.4773C80.2898 39.4773 82.2898 39.892 84.0057 40.7216C85.7216 41.5511 87.0795 42.7159 88.0795 44.2159C89.0795 45.7159 89.6307 47.4773 89.733 49.5H82.8807C82.6875 48.1932 82.1761 47.142 81.3466 46.3466C80.5284 45.5398 79.4545 45.1364 78.125 45.1364C77 45.1364 76.017 45.4432 75.1761 46.0568C74.3466 46.6591 73.6989 47.5398 73.233 48.6989C72.767 49.858 72.5341 51.2614 72.5341 52.9091C72.5341 54.5795 72.7614 56 73.2159 57.1705C73.6818 58.3409 74.3352 59.233 75.1761 59.8466C76.017 60.4602 77 60.767 78.125 60.767C78.9545 60.767 79.6989 60.5966 80.358 60.2557C81.0284 59.9148 81.5795 59.4205 82.0114 58.7727C82.4545 58.1136 82.7443 57.3239 82.8807 56.4034H89.733C89.6193 58.4034 89.0739 60.1648 88.0966 61.6875C87.1307 63.1989 85.7955 64.3807 84.0909 65.233C82.3864 66.0852 80.3693 66.5114 78.0398 66.5114ZM100.962 58.4659L100.979 49.7557H102.036L110.422 39.8182H118.757L107.49 52.9773H105.768L100.962 58.4659ZM94.3821 66V31.0909H101.643V66H94.3821ZM110.746 66L103.041 54.5966L107.882 49.4659L119.251 66H110.746ZM145.604 42.375C145.365 41.5455 145.03 40.8125 144.598 40.1761C144.166 39.5284 143.638 38.983 143.013 38.5398C142.399 38.0852 141.695 37.7386 140.899 37.5C140.115 37.2614 139.246 37.142 138.291 37.142C136.507 37.142 134.939 37.5852 133.587 38.4716C132.246 39.358 131.2 40.6477 130.45 42.3409C129.7 44.0227 129.325 46.0795 129.325 48.5114C129.325 50.9432 129.695 53.0114 130.433 54.7159C131.172 56.4205 132.217 57.7216 133.57 58.6193C134.922 59.5057 136.518 59.9489 138.359 59.9489C140.03 59.9489 141.456 59.6534 142.638 59.0625C143.831 58.4602 144.74 57.6136 145.365 56.5227C146.001 55.4318 146.32 54.142 146.32 52.6534L147.82 52.875H138.82V47.3182H153.428V51.7159C153.428 54.7841 152.78 57.4205 151.484 59.625C150.189 61.8182 148.405 63.5114 146.132 64.7045C143.859 65.8864 141.257 66.4773 138.325 66.4773C135.053 66.4773 132.178 65.7557 129.7 64.3125C127.223 62.858 125.291 60.7955 123.905 58.125C122.53 55.4432 121.842 52.2614 121.842 48.5795C121.842 45.75 122.251 43.2273 123.07 41.0114C123.899 38.7841 125.058 36.8977 126.547 35.3523C128.036 33.8068 129.768 32.6307 131.746 31.8239C133.723 31.017 135.865 30.6136 138.172 30.6136C140.149 30.6136 141.99 30.9034 143.695 31.483C145.399 32.0511 146.911 32.858 148.229 33.9034C149.558 34.9489 150.643 36.1932 151.484 37.6364C152.325 39.0682 152.865 40.6477 153.104 42.375H145.604ZM170.665 66.5114C168.017 66.5114 165.727 65.9489 163.795 64.8239C161.875 63.6875 160.392 62.108 159.347 60.0852C158.301 58.0511 157.778 55.6932 157.778 53.0114C157.778 50.3068 158.301 47.9432 159.347 45.9205C160.392 43.8864 161.875 42.3068 163.795 41.1818C165.727 40.0455 168.017 39.4773 170.665 39.4773C173.312 39.4773 175.597 40.0455 177.517 41.1818C179.449 42.3068 180.938 43.8864 181.983 45.9205C183.028 47.9432 183.551 50.3068 183.551 53.0114C183.551 55.6932 183.028 58.0511 181.983 60.0852C180.938 62.108 179.449 63.6875 177.517 64.8239C175.597 65.9489 173.312 66.5114 170.665 66.5114ZM170.699 60.8864C171.903 60.8864 172.909 60.5455 173.716 59.8636C174.523 59.1705 175.131 58.2273 175.54 57.0341C175.96 55.8409 176.17 54.483 176.17 52.9602C176.17 51.4375 175.96 50.0795 175.54 48.8864C175.131 47.6932 174.523 46.75 173.716 46.0568C172.909 45.3636 171.903 45.017 170.699 45.017C169.483 45.017 168.46 45.3636 167.631 46.0568C166.813 46.75 166.193 47.6932 165.773 48.8864C165.364 50.0795 165.159 51.4375 165.159 52.9602C165.159 54.483 165.364 55.8409 165.773 57.0341C166.193 58.2273 166.813 59.1705 167.631 59.8636C168.46 60.5455 169.483 60.8864 170.699 60.8864ZM200.068 76.3636C197.716 76.3636 195.699 76.0398 194.017 75.392C192.347 74.7557 191.017 73.8864 190.028 72.7841C189.04 71.6818 188.398 70.4432 188.102 69.0682L194.818 68.1648C195.023 68.6875 195.347 69.1761 195.79 69.6307C196.233 70.0852 196.818 70.4489 197.545 70.7216C198.284 71.0057 199.182 71.1477 200.239 71.1477C201.818 71.1477 203.119 70.7614 204.142 69.9886C205.176 69.2273 205.693 67.9489 205.693 66.1534V61.3636H205.386C205.068 62.0909 204.591 62.7784 203.955 63.4261C203.318 64.0739 202.5 64.6023 201.5 65.0114C200.5 65.4205 199.307 65.625 197.92 65.625C195.955 65.625 194.165 65.1705 192.551 64.2614C190.949 63.3409 189.67 61.9375 188.716 60.0511C187.773 58.1534 187.301 55.7557 187.301 52.858C187.301 49.892 187.784 47.4148 188.75 45.4261C189.716 43.4375 191 41.9489 192.602 40.9602C194.216 39.9716 195.983 39.4773 197.903 39.4773C199.369 39.4773 200.597 39.7273 201.585 40.2273C202.574 40.7159 203.369 41.3295 203.972 42.0682C204.585 42.7955 205.057 43.5114 205.386 44.2159H205.659V39.8182H212.869V66.2557C212.869 68.483 212.324 70.3466 211.233 71.8466C210.142 73.3466 208.631 74.4716 206.699 75.2216C204.778 75.983 202.568 76.3636 200.068 76.3636ZM200.222 60.1705C201.392 60.1705 202.381 59.8807 203.188 59.3011C204.006 58.7102 204.631 57.8693 205.062 56.7784C205.506 55.6761 205.727 54.358 205.727 52.8239C205.727 51.2898 205.511 49.9602 205.08 48.8352C204.648 47.6989 204.023 46.8182 203.205 46.1932C202.386 45.5682 201.392 45.2557 200.222 45.2557C199.028 45.2557 198.023 45.5795 197.205 46.2273C196.386 46.8636 195.767 47.75 195.347 48.8864C194.926 50.0227 194.716 51.3352 194.716 52.8239C194.716 54.3352 194.926 55.642 195.347 56.7443C195.778 57.8352 196.398 58.6818 197.205 59.2841C198.023 59.875 199.028 60.1705 200.222 60.1705ZM230.477 66.5114C227.83 66.5114 225.54 65.9489 223.608 64.8239C221.688 63.6875 220.205 62.108 219.159 60.0852C218.114 58.0511 217.591 55.6932 217.591 53.0114C217.591 50.3068 218.114 47.9432 219.159 45.9205C220.205 43.8864 221.688 42.3068 223.608 41.1818C225.54 40.0455 227.83 39.4773 230.477 39.4773C233.125 39.4773 235.409 40.0455 237.33 41.1818C239.261 42.3068 240.75 43.8864 241.795 45.9205C242.841 47.9432 243.364 50.3068 243.364 53.0114C243.364 55.6932 242.841 58.0511 241.795 60.0852C240.75 62.108 239.261 63.6875 237.33 64.8239C235.409 65.9489 233.125 66.5114 230.477 66.5114ZM230.511 60.8864C231.716 60.8864 232.722 60.5455 233.528 59.8636C234.335 59.1705 234.943 58.2273 235.352 57.0341C235.773 55.8409 235.983 54.483 235.983 52.9602C235.983 51.4375 235.773 50.0795 235.352 48.8864C234.943 47.6932 234.335 46.75 233.528 46.0568C232.722 45.3636 231.716 45.017 230.511 45.017C229.295 45.017 228.273 45.3636 227.443 46.0568C226.625 46.75 226.006 47.6932 225.585 48.8864C225.176 50.0795 224.972 51.4375 224.972 52.9602C224.972 54.483 225.176 55.8409 225.585 57.0341C226.006 58.2273 226.625 59.1705 227.443 59.8636C228.273 60.5455 229.295 60.8864 230.511 60.8864Z" fill="white"/>
</svg>
